<svg width="20" height="20" viewBox="0 0 20 20" fill="none" xmlns="http://www.w3.org/2000/svg">
<path d="M14.9241 3.20836C15.0352 3.09721 15.213 3.09721 15.3241 3.20836L16.7917 4.67615C16.9028 4.78483 16.9028 4.96513 16.7917 5.0738L12.0676 9.80117C11.9565 9.90985 11.9565 10.0902 12.0676 10.2013L16.7917 14.9262C16.9028 15.0349 16.9028 15.2152 16.7917 15.3238L15.3241 16.7916C15.213 16.9028 15.0352 16.9028 14.9241 16.7916L10.2 12.0667C10.0889 11.9556 9.9111 11.9556 9.79997 12.0667L5.07592 16.7916C4.9648 16.9028 4.787 16.9028 4.67587 16.7916L3.20834 15.3238C3.09722 15.2152 3.09722 15.0349 3.20834 14.9262L7.9324 10.2013C8.04352 10.0902 8.04352 9.90985 7.9324 9.80117L3.20834 5.0738C3.09722 4.96513 3.09722 4.78483 3.20834 4.67615L4.67587 3.20836C4.787 3.09721 4.9648 3.09721 5.07592 3.20836L9.79997 7.93326C9.9111 8.0444 10.0889 8.0444 10.2 7.93326L14.9241 3.20836Z" fill="#686868"/>
</svg>
