<svg width="26" height="26" viewBox="0 0 26 26" fill="none" xmlns="http://www.w3.org/2000/svg">
<path fill-rule="evenodd" clip-rule="evenodd" d="M6.18301 6.18301C4.76933 7.59669 4.0625 9.29905 4.0625 11.2902C4.0625 13.2813 4.76933 14.9836 6.18301 16.3973C7.59669 17.811 9.29905 18.5178 11.2902 18.5178C12.7038 18.5178 14.003 18.1295 15.1877 17.353L19.6677 21.833C19.7473 21.9027 19.8369 21.9375 19.9365 21.9375C20.036 21.9375 20.1256 21.9027 20.2053 21.833L21.833 20.2053C21.9027 20.1256 21.9375 20.036 21.9375 19.9365C21.9375 19.8369 21.9027 19.7473 21.833 19.6677L17.353 15.1877C18.1295 14.003 18.5178 12.7038 18.5178 11.2902C18.5178 9.29905 17.811 7.59669 16.3973 6.18301C14.9836 4.76933 13.2813 4.0625 11.2902 4.0625C9.29905 4.0625 7.59669 4.76933 6.18301 6.18301ZM7.79581 14.7696C6.83012 13.8039 6.34729 12.6441 6.34729 11.2901C6.34729 9.9362 6.83012 8.7764 7.79581 7.81072C8.76149 6.84504 9.92627 6.3622 11.2902 6.3622C12.6541 6.3622 13.8164 6.84255 14.7771 7.80325C15.7378 8.76396 16.2181 9.92625 16.2181 11.2901C16.2181 12.6541 15.7378 13.8163 14.7771 14.777C13.8164 15.7377 12.6541 16.2181 11.2902 16.2181C9.92627 16.2181 8.76149 15.7353 7.79581 14.7696Z" fill="white"/>
</svg>
